# xmcd CD database file
#
# Track frame offsets:
#	150
#	23348
#	44048
#	62523
#	79379
#	99767
#	118417
#	131809
#	147563
#	163215
#	180058
#	199620
#	219055
#	236908
#	256020
#	273384
#
# Disc length: 3939 seconds
#
# Revision: 2
# Processed by: cddbd v1.4PL0 Copyright (c) Steve Scherf et al.
# Submitted via: CDex 1.40Beta9
#
DISCID=de0f6110
DTITLE=LeAnn Rimes - Sittin' on top of the world
DYEAR=1900
DGENRE=Country
TTITLE0=How Do I Live
TTITLE1=Commitment
TTITLE2=Looking Through Your Eyes
TTITLE3=Undeniable
TTITLE4=Feels Like Home
TTITLE5=Surrender
TTITLE6=These Arms Of Mine
TTITLE7=Nothin' New Under The Moon
TTITLE8=When Am I Gonna Get Over You
TTITLE9=Rock Me
TTITLE10=More Than Anyone Deserves
TTITLE11=Insensitive
TTITLE12=All The Lovin' And Hurtin'
TTITLE13=Sittin' On Top Of The World
TTITLE14=The Heart Never Forgets
TTITLE15=Purple Rain
EXTD=ID3G: 2
EXTT0=
EXTT1=
EXTT2=
EXTT3=
EXTT4=
EXTT5=
EXTT6=
EXTT7=
EXTT8=
EXTT9=
EXTT10=
EXTT11=
EXTT12=
EXTT13=
EXTT14=
EXTT15=
PLAYORDER=
